<svg width="81" height="33" viewBox="0 0 81 33" fill="none" xmlns="http://www.w3.org/2000/svg">
<g clip-path="url(#clip0_1_65)">
<mask id="mask0_1_65" style="mask-type:luminance" maskUnits="userSpaceOnUse" x="3" y="0" width="73" height="33">
<path d="M75.9971 0.5H3.59855V32.5H75.9971V0.5Z" fill="white"/>
</mask>
<g mask="url(#mask0_1_65)">
<path d="M69.5676 10.2514C70.6181 10.2514 71.4696 9.3998 71.4696 8.34933C71.4696 7.29886 70.6181 6.44728 69.5676 6.44728C68.5171 6.44728 67.6656 7.29886 67.6656 8.34933C67.6656 9.3998 68.5171 10.2514 69.5676 10.2514Z" fill="#212121"/>
<path d="M9.51901 9.38073H13.7518V19.6947H16.3369V9.38073H20.5696V6.79555H9.51901V9.38073Z" fill="#212121"/>
<path d="M26.1687 10.9077C25.4233 10.4502 24.5652 10.2091 23.6906 10.2112C22.93 10.1955 22.1761 10.3575 21.4891 10.6843C20.802 11.0112 20.2008 11.4938 19.7331 12.094C19.2655 12.6941 18.9443 13.3951 18.7952 14.1411C18.6461 14.8872 18.6732 15.6578 18.8743 16.3916C19.0754 17.1253 19.445 17.802 19.9537 18.3678C20.4623 18.9336 21.096 19.3729 21.8043 19.6507C22.5126 19.9285 23.2759 20.0372 24.0336 19.9681C24.7912 19.8989 25.5223 19.654 26.1687 19.2526V19.6545H28.5663V10.4791H26.1687V10.9077ZM23.6773 17.6051C23.1845 17.6051 22.7028 17.459 22.2931 17.1852C21.8834 16.9114 21.5641 16.5223 21.3755 16.0671C21.1869 15.6119 21.1376 15.1109 21.2337 14.6276C21.3298 14.1443 21.5671 13.7004 21.9155 13.3519C22.264 13.0035 22.7079 12.7662 23.1912 12.6701C23.6745 12.574 24.1755 12.6233 24.6307 12.8119C25.0859 13.0005 25.475 13.3197 25.7488 13.7295C26.0225 14.1392 26.1687 14.6209 26.1687 15.1137C26.1651 15.7686 25.9025 16.3954 25.4382 16.8572C24.9738 17.319 24.3455 17.5783 23.6906 17.5783L23.6773 17.6051Z" fill="#212121"/>
<path d="M36.0272 10.2112C35.1504 10.2107 34.2898 10.4467 33.5357 10.8943V10.4925H31.1515V23.3916H33.5492V19.2526C34.2984 19.7125 35.1614 19.9538 36.0406 19.9491C36.7033 19.9839 37.3661 19.8833 37.9887 19.6536C38.6112 19.424 39.1805 19.07 39.6618 18.6132C40.1432 18.1564 40.5265 17.6064 40.7884 16.9967C41.0503 16.387 41.1855 15.7304 41.1855 15.0668C41.1855 14.4032 41.0503 13.7465 40.7884 13.1369C40.5265 12.5272 40.1432 11.9771 39.6618 11.5203C39.1805 11.0636 38.6112 10.7096 37.9887 10.4799C37.3661 10.2502 36.7033 10.1496 36.0406 10.1844L36.0272 10.2112ZM36.0272 17.5783C35.5345 17.5783 35.0527 17.4321 34.643 17.1584C34.2333 16.8846 33.914 16.4955 33.7255 16.0403C33.5368 15.5851 33.4876 15.0841 33.5836 14.6008C33.6797 14.1176 33.9171 13.6736 34.2655 13.3251C34.614 12.9767 35.0578 12.7395 35.5411 12.6433C36.0244 12.5472 36.5254 12.5965 36.9806 12.7851C37.4359 12.9737 37.8249 13.293 38.0988 13.7027C38.3725 14.1124 38.5186 14.5941 38.5186 15.0869C38.5204 15.4146 38.4572 15.7393 38.3325 16.0424C38.208 16.3455 38.0245 16.6208 37.7928 16.8525C37.5612 17.0842 37.2858 17.2676 36.9827 17.3923C36.6796 17.5169 36.3548 17.58 36.0272 17.5783Z" fill="#212121"/>
<path d="M45.3365 10.4791H42.9389V19.6947H45.3365V10.4791Z" fill="#212121"/>
<path d="M54.7262 10.8943C54.0808 10.5159 53.357 10.2911 52.6108 10.2373C51.8645 10.1835 51.1159 10.3021 50.4229 10.5841C49.7298 10.866 49.111 11.3037 48.6142 11.8631C48.1174 12.4226 47.7561 13.0889 47.5581 13.8104C47.3602 14.532 47.331 15.2894 47.4727 16.024C47.6145 16.7587 47.9234 17.4508 48.3755 18.0469C48.8276 18.643 49.4109 19.127 50.0802 19.4616C50.7494 19.7961 51.4866 19.9721 52.2348 19.9759C53.0932 19.9789 53.9362 19.7473 54.6727 19.3062C54.5527 19.8626 54.2449 20.3607 53.8009 20.7169C53.357 21.073 52.8039 21.2654 52.2348 21.2619C51.9078 21.2638 51.5837 21.1995 51.2821 21.0729C50.9806 20.9463 50.7078 20.7599 50.4801 20.5251L48.779 22.2263C49.4597 22.9282 50.3353 23.4099 51.2925 23.6091C52.2498 23.8083 53.2449 23.7159 54.1491 23.3439C55.0534 22.9718 55.8252 22.3372 56.3651 21.5219C56.9049 20.7066 57.1879 19.7482 57.1774 18.7704V10.4792H54.7262V10.8943ZM52.2348 17.5917C51.7421 17.5917 51.2604 17.4456 50.8507 17.1718C50.441 16.8981 50.1216 16.509 49.9331 16.0537C49.7445 15.5985 49.6951 15.0975 49.7913 14.6143C49.8874 14.131 50.1247 13.687 50.4732 13.3386C50.8216 12.9901 51.2655 12.7529 51.7488 12.6567C52.2321 12.5606 52.733 12.61 53.1882 12.7985C53.6434 12.9871 54.0326 13.3064 54.3064 13.7161C54.5801 14.1259 54.7262 14.6075 54.7262 15.1003C54.7262 15.7575 54.4651 16.3878 54.0005 16.8525C53.5357 17.3173 52.9054 17.5783 52.2482 17.5783L52.2348 17.5917Z" fill="#212121"/>
<path d="M64.0355 10.2112C63.0685 10.2112 62.1234 10.4979 61.3193 11.0351C60.5153 11.5724 59.8887 12.336 59.5186 13.2293C59.1485 14.1227 59.0517 15.1057 59.2404 16.0541C59.429 17.0025 59.8947 17.8736 60.5784 18.5573C61.2622 19.2411 62.1333 19.7068 63.0817 19.8954C64.0301 20.084 65.0131 19.9872 65.9065 19.6172C66.7998 19.2472 67.5634 18.6205 68.1007 17.8165C68.6379 17.0125 68.9246 16.0673 68.9246 15.1002C68.9246 13.8036 68.4095 12.5601 67.4927 11.6431C66.5757 10.7263 65.3322 10.2112 64.0355 10.2112ZM64.0355 17.5783C63.544 17.573 63.0649 17.4224 62.6588 17.1455C62.2525 16.8685 61.9374 16.4776 61.753 16.0219C61.5685 15.5661 61.5229 15.0661 61.6221 14.5846C61.7213 14.1031 61.9606 13.6617 62.31 13.3159C62.6596 12.9701 63.1035 12.7355 63.586 12.6415C64.0686 12.5475 64.5682 12.5985 65.0218 12.7877C65.4755 12.9771 65.8631 13.2964 66.1357 13.7056C66.4082 14.1146 66.5537 14.5953 66.5537 15.0869C66.5555 15.4168 66.4914 15.7438 66.3653 16.0487C66.239 16.3535 66.0531 16.6301 65.8186 16.8621C65.584 17.0942 65.3055 17.2771 64.9993 17.4001C64.6931 17.5231 64.3655 17.5836 64.0355 17.5783Z" fill="#E94A49"/>
<path d="M16.4039 32.5C13.0088 32.4965 9.75377 31.1462 7.35307 28.7455C4.95237 26.3448 3.6021 23.0898 3.59855 19.6947H9.5592C9.56275 21.5089 10.285 23.2478 11.5679 24.5307C12.8508 25.8136 14.5896 26.5358 16.4039 26.5394V32.5Z" fill="#0487C0"/>
<path d="M64.0088 27.0617V22.7085C66.0361 22.7049 67.9794 21.8979 69.413 20.4644C70.8466 19.0308 71.6536 17.0875 71.6572 15.0601H76.0104C75.9964 18.2388 74.7273 21.2833 72.4796 23.5309C70.232 25.7787 67.1875 27.0477 64.0088 27.0617Z" fill="#212121"/>
<path d="M23.0075 6.1258L20.7304 3.8487C22.8753 1.70647 25.7827 0.503208 28.8141 0.503208C31.8455 0.503208 34.753 1.70647 36.8978 3.8487L34.6207 6.1258C33.8582 5.36317 32.953 4.7582 31.9567 4.34547C30.9604 3.93272 29.8925 3.72029 28.8141 3.72029C27.7357 3.72029 26.6678 3.93272 25.6715 4.34547C24.6752 4.7582 23.77 5.36317 23.0075 6.1258Z" fill="#E94A49"/>
</g>
</g>
<defs>
<clipPath id="clip0_1_65">
<rect width="80" height="32" fill="white" transform="translate(0.169983 0.5)"/>
</clipPath>
</defs>
</svg>
